<?xml version="1.0" standalone="no"?>
<!DOCTYPE svg PUBLIC "-//W3C//DTD SVG 20010904//EN"
 "http://www.w3.org/TR/2001/REC-SVG-20010904/DTD/svg10.dtd">
<svg version="1.0" xmlns="http://www.w3.org/2000/svg"
 width="500.000000pt" height="500.000000pt" viewBox="0 0 500.000000 500.000000"
 preserveAspectRatio="xMidYMid meet">

<g transform="translate(0.000000,500.000000) scale(0.100000,-0.100000)"
fill="#000000" stroke="none">
<path d="M1970 4805 c-11 -13 -11 -96 -1 -428 6 -227 16 -432 21 -457 16 -69
62 -91 110 -52 22 17 23 26 22 123 0 57 -7 181 -16 274 -8 94 -18 208 -21 255
-10 150 -27 275 -37 288 -14 17 -63 15 -78 -3z"/>
<path d="M3679 4463 c-168 -172 -287 -342 -364 -518 -37 -86 -36 -111 8 -133
39 -19 56 -5 117 95 82 137 213 305 318 411 146 147 151 158 106 211 -19 23
-34 31 -58 31 -28 0 -46 -14 -127 -97z"/>
<path d="M366 3739 c-38 -30 -34 -64 12 -106 183 -170 328 -282 514 -396 126
-77 191 -107 234 -107 26 0 64 43 64 73 0 30 -57 77 -160 132 -141 75 -340
209 -479 323 -68 56 -132 102 -141 102 -10 0 -29 -9 -44 -21z"/>
<path d="M2495 3609 c-408 -55 -696 -174 -917 -378 -229 -211 -352 -511 -328
-797 24 -275 115 -416 410 -636 152 -114 197 -154 270 -244 95 -119 131 -204
131 -316 0 -91 -5 -106 -36 -100 -55 10 -98 -53 -73 -106 10 -21 25 -29 68
-39 122 -28 285 -45 467 -50 166 -5 199 -3 237 11 25 10 48 26 51 36 3 11 8
70 10 132 5 181 58 341 160 484 64 89 146 159 345 295 96 65 208 146 247 179
151 126 278 305 329 465 32 98 42 245 25 337 -50 255 -246 494 -504 613 -191
88 -328 115 -607 120 -118 2 -246 0 -285 -6z m573 -178 c322 -69 556 -251 643
-501 17 -49 22 -88 23 -160 0 -111 -18 -180 -75 -290 -82 -158 -176 -248 -463
-442 -290 -195 -426 -348 -507 -570 -35 -96 -55 -183 -64 -292 l-8 -79 -221 6
c-121 4 -236 9 -254 13 l-34 7 9 46 c17 93 8 220 -20 303 -57 166 -146 276
-367 454 -69 56 -142 119 -162 142 -192 213 -215 510 -63 799 128 243 338 408
641 502 105 33 260 66 374 80 125 16 440 6 548 -18z"/>
<path d="M2506 2519 c-15 -11 -35 -38 -46 -59 -37 -73 -52 -257 -28 -359 9
-40 9 -53 -2 -66 -12 -14 -17 -9 -38 46 -55 137 -162 181 -270 111 -72 -47
-98 -178 -51 -262 32 -57 106 -100 180 -103 49 -2 55 -4 60 -27 9 -44 -9 -251
-35 -380 -25 -129 -23 -150 14 -150 10 0 20 6 23 13 3 9 9 7 24 -5 11 -10 29
-18 40 -18 30 0 47 27 73 115 41 145 90 298 131 418 l41 117 37 0 c83 0 171
76 171 147 0 111 -121 152 -199 67 -19 -21 -31 -29 -26 -18 69 168 64 335 -14
413 -27 27 -51 27 -85 0z m-228 -489 c39 -78 24 -98 -53 -66 -39 17 -52 48
-36 90 9 22 16 27 39 24 21 -2 32 -13 50 -48z m457 40 c10 -17 -13 -47 -45
-58 -35 -13 -37 -8 -10 36 19 32 43 41 55 22z m-205 -132 c0 -7 -25 -78 -55
-158 l-55 -145 7 119 6 118 41 39 c43 41 56 47 56 27z"/>
<path d="M4800 3008 c-154 -21 -449 -141 -618 -250 -86 -55 -103 -79 -83 -117
22 -40 50 -35 191 33 175 83 268 115 470 161 91 21 178 44 193 52 34 17 50 54
37 87 -17 47 -55 53 -190 34z"/>
<path d="M712 2489 c-84 -13 -308 -71 -462 -121 -143 -46 -234 -89 -244 -115
-9 -23 25 -67 55 -71 14 -2 90 18 169 43 171 54 268 77 445 104 238 37 268 48
268 106 0 48 -28 65 -102 64 -36 -1 -94 -6 -129 -10z"/>
<path d="M845 1480 c-129 -142 -243 -285 -324 -406 -41 -61 -51 -83 -46 -103
9 -36 32 -59 65 -66 43 -9 66 9 117 88 111 174 232 342 342 472 55 65 64 100
33 128 -40 37 -62 24 -187 -113z"/>
<path d="M3766 1519 c-14 -11 -26 -27 -26 -34 0 -19 95 -97 247 -202 70 -48
184 -128 253 -176 199 -141 250 -161 289 -111 45 58 20 88 -176 213 -423 271
-523 331 -551 331 -5 0 -21 -9 -36 -21z"/>
<path d="M2139 830 c-48 -5 -111 -17 -140 -27 -49 -16 -54 -21 -57 -50 -6 -56
22 -65 216 -69 92 -3 242 -12 335 -21 166 -17 167 -17 195 4 51 38 37 119 -26
149 -31 14 -72 18 -237 20 -110 1 -239 -1 -286 -6z"/>
<path d="M2185 589 c-211 -11 -229 -15 -233 -56 -4 -41 12 -49 136 -70 l99
-16 -15 -41 c-18 -50 -11 -100 21 -146 38 -57 70 -74 147 -78 100 -6 134 3
176 46 59 60 78 107 79 189 0 85 -18 116 -86 150 -58 28 -118 33 -324 22z
m235 -179 c0 -16 -43 -50 -63 -50 -26 0 -17 21 19 41 34 21 44 23 44 9z"/>
</g>
</svg>
